# xmcd
#
# Track frame offsets: 
#        150
#        12830
#        23365
#        44233
#        54837
#        71090
#        83834
#        95648
#        111807
#        124435
#        126440
#        136277
#        147226
#        158350
#        169445
#
# Disc length: 2640 seconds
#
# Revision: 0
# Processed by: cddbd v1.5PL3 Copyright (c) Steve Scherf et al.
# Submitted via: ExactAudioCopy v0.90b4
#
DISCID=d00a4e0f
DTITLE=Various Artist - Vogtlandheimat
DYEAR=1992
DGENRE=Folklore
TTITLE0=Mein Vogtland - mein Heimatland/original Vogtlandecho
TTITLE1=Stefanies Wanderlied/Stefanie Hertel
TTITLE2=Klingende Täler/Original Elstertaler Musikanten
TTITLE3=De Liese von Oelsnitz/Heike Gudrun Lorenz
TTITLE4=Mei Vugtland is su wunnerschie/Eberhard Hertel
TTITLE5=Kroatzbeer-Marsch/Dr Sing-Müller
TTITLE6=Schönes Wetter/Prinzenberg-Musikanten
TTITLE7=Vogtland,dir ergeben/Elsterperlen
TTITLE8=Vogtlandgrün/Die lustigen Elsterberger
TTITLE9=Heinersgrüner Signal/Krebeser Jagdhornbläser
TTITLE10=Vogtlandheimat/Rodauer Folkloregruppe
TTITLE11=Itze kimmt de Kirmes ra/Wurzelfolk
TTITLE12=De Gockeschen Gunge-In man gunge Gahrne/De Gockeschen
TTITLE13=Gruss aus Klingenthal/Bläserensemble Plauen
TTITLE14=Vogtland-Medley(Der Zipfelsgörg,Zum Schnäderedäng...)/Wendels
TTITLE14=steinchor Grünbach
EXTD=
EXTT0=
EXTT1=
EXTT2=
EXTT3=
EXTT4=
EXTT5=
EXTT6=
EXTT7=
EXTT8=
EXTT9=
EXTT10=
EXTT11=
EXTT12=
EXTT13=
EXTT14=
PLAYORDER=
